<svg width="31" height="38" viewBox="0 0 31 38" fill="none" xmlns="http://www.w3.org/2000/svg">
<path d="M25.8272 20.5308C25.864 17.6579 27.4009 14.9394 29.8391 13.4346C28.3009 11.2293 25.7247 9.83114 23.0443 9.74695C20.1855 9.4457 17.4141 11.4643 15.9573 11.4643C14.4723 11.4643 12.2293 9.77686 9.814 9.82675C6.66576 9.92885 3.73081 11.7258 2.19913 14.4889C-1.09339 20.2116 1.36253 28.6221 4.51649 33.248C6.09448 35.5131 7.9387 38.0433 10.3518 37.9536C12.7132 37.8553 13.5951 36.4419 16.4455 36.4419C19.2695 36.4419 20.0969 37.9536 22.559 37.8965C25.0929 37.8552 26.6893 35.6213 28.212 33.3347C29.3457 31.7208 30.2182 29.9369 30.797 28.0494C27.8192 26.785 25.8306 23.7766 25.8272 20.5308Z" fill="#090909"/>
<path d="M21.1767 6.70478C22.5582 5.03977 23.2389 2.89969 23.0741 0.739014C20.9633 0.961571 19.0136 1.9743 17.6133 3.57543C16.2441 5.13981 15.5315 7.24223 15.6663 9.32033C17.7778 9.34215 19.8535 8.35687 21.1767 6.70478Z" fill="#090909"/>
</svg>
